<svg width="48" height="49" viewBox="0 0 48 49" fill="none" xmlns="http://www.w3.org/2000/svg">
<rect y="0.0859375" width="48" height="48" rx="24" fill="#E8EAF7"/>
<path d="M16.0003 32.0863H18.667M24.0003 32.0863H32.0003M17.3337 10.7529H30.667C32.1398 10.7529 33.3337 11.9468 33.3337 13.4196V18.7529C33.3337 20.2257 32.1398 21.4196 30.667 21.4196H17.3337C15.8609 21.4196 14.667 20.2257 14.667 18.7529V13.4196C14.667 11.9468 15.8609 10.7529 17.3337 10.7529ZM13.3337 26.7529H34.667C36.1398 26.7529 37.3337 27.9468 37.3337 29.4196V34.7529C37.3337 36.2257 36.1398 37.4196 34.667 37.4196H13.3337C11.8609 37.4196 10.667 36.2257 10.667 34.7529V29.4196C10.667 27.9468 11.8609 26.7529 13.3337 26.7529Z" stroke="#3D7CC9" stroke-width="3" stroke-linecap="round" stroke-linejoin="round"/>
</svg>
