<svg width="49" height="49" viewBox="0 0 49 49" fill="none" xmlns="http://www.w3.org/2000/svg">
<rect x="0.666016" y="0.0859375" width="48" height="48" rx="24" fill="#E8EAF7"/>
<path d="M24.6663 37.4196H32.6663C33.3736 37.4196 34.0519 37.1386 34.552 36.6385C35.0521 36.1385 35.333 35.4602 35.333 34.7529V17.4196L28.6663 10.7529H16.6663C15.9591 10.7529 15.2808 11.0339 14.7807 11.534C14.2806 12.0341 13.9997 12.7124 13.9997 13.4196V17.4196M27.333 10.7529V16.0863C27.333 16.7935 27.614 17.4718 28.1141 17.9719C28.6142 18.472 29.2924 18.7529 29.9997 18.7529H35.333M17.9997 30.0863L19.333 37.4196L15.333 36.0863L11.333 37.4196L12.6663 30.0863M15.333 30.7529C15.8583 30.7529 16.3784 30.6495 16.8637 30.4484C17.349 30.2474 17.79 29.9528 18.1614 29.5814C18.5329 29.2099 18.8275 28.769 19.0285 28.2837C19.2295 27.7984 19.333 27.2782 19.333 26.7529C19.333 26.2276 19.2295 25.7075 19.0285 25.2222C18.8275 24.7369 18.5329 24.2959 18.1614 23.9245C17.79 23.5531 17.349 23.2584 16.8637 23.0574C16.3784 22.8564 15.8583 22.7529 15.333 22.7529C14.2721 22.7529 13.2547 23.1744 12.5046 23.9245C11.7544 24.6746 11.333 25.6921 11.333 26.7529C11.333 27.8138 11.7544 28.8312 12.5046 29.5814C13.2547 30.3315 14.2721 30.7529 15.333 30.7529Z" stroke="#3D7CC9" stroke-width="3" stroke-linecap="round" stroke-linejoin="round"/>
</svg>
