<svg width="49" height="49" viewBox="0 0 49 49" fill="none" xmlns="http://www.w3.org/2000/svg">
<rect x="0.333008" y="0.0859375" width="48" height="48" rx="24" fill="#EBF2F9"/>
<path d="M24.3333 10.7529C26.9202 10.7525 29.4513 11.5045 31.6182 12.9174C33.7852 14.3303 35.4943 16.343 36.5373 18.7103C37.5803 21.0776 37.9121 23.6971 37.4924 26.2497C37.0727 28.8023 35.9195 31.1776 34.1733 33.0863M29.6667 24.0863L24.3333 18.7529M24.3333 18.7529L19 24.0863M24.3333 18.7529V29.4196M11.6667 19.9196C11.2418 21.2111 11.017 22.5601 11 23.9196M12.1066 29.4196C12.8553 31.142 13.9594 32.6869 15.3466 33.9529M14.5146 15.0662C14.8867 14.6611 15.2835 14.2795 15.7026 13.9235M19.8587 36.6463C23.1837 37.8308 26.8426 37.6486 30.0334 36.1396" stroke="#3D7CC9" stroke-width="3" stroke-linecap="round" stroke-linejoin="round"/>
</svg>
