<svg width="148" height="50" viewBox="0 0 148 50" fill="none" xmlns="http://www.w3.org/2000/svg">
<g clip-path="url(#clip0_509_2406)">
<path d="M35.4765 24.6552L23.8203 36.6551C22.6576 37.852 21.0814 38.524 19.4388 38.524H7.28096C3.20842 38.524 -0.0917969 35.1265 -0.0917969 30.9339V7.79065C-0.0917969 3.53476 3.25825 0.0859375 7.39225 0.0859375H29.7364C33.8837 0.0859375 37.2454 3.54673 37.2454 7.8163V20.2608C37.2454 21.9091 36.6092 23.4908 35.4765 24.6552ZM6.51196 10.2392V28.3588C6.51196 30.5064 8.20277 32.2471 10.2889 32.2471H16.5472C18.4389 32.2471 19.9719 30.6688 19.9719 28.7213V22.0493H26.7435C28.8877 22.0493 30.6267 20.2591 30.6267 18.0516V10.4033C30.6267 8.17025 28.8694 6.36119 26.7003 6.36119H10.2789C8.19778 6.36119 6.51196 8.09672 6.51196 10.2392Z" fill="#FE3B1F"/>
<path d="M33.9158 48.5006H3.2007C1.38533 48.5006 -0.0878906 46.9857 -0.0878906 45.1151C-0.0878906 43.2462 1.38367 41.7295 3.2007 41.7295H33.9142C35.7295 41.7295 37.2028 43.2444 37.2028 45.1151C37.2028 46.984 35.7312 48.5006 33.9142 48.5006H33.9158Z" fill="#2E3C8A"/>
<path d="M101.107 26.7466H96.5996V33.292L101.107 32.0267V26.7466Z" fill="#FE3B1F"/>
<path d="M104.067 37.1788V32.3364L93.9336 35.1782V37.1788H96.5993V43.9123C96.5993 47.0482 98.2436 48.7102 101.35 48.7102H104.067V45.1041H101.107V37.1788H104.067Z" fill="#FE3B1F"/>
<path d="M61.9316 40.463C61.9316 35.1658 64.7336 31.8726 69.424 31.8726C74.1144 31.8726 76.9163 35.1658 76.9163 40.463C76.9163 45.7602 74.1144 49.0859 69.424 49.0859C64.7336 49.0859 61.9316 45.7619 61.9316 40.463ZM72.2259 42.1558V38.801C72.2259 36.732 71.1912 35.5403 69.424 35.5403C67.6568 35.5403 66.622 36.732 66.622 38.801V42.1558C66.622 44.2247 67.6568 45.4165 69.424 45.4165C71.1912 45.4165 72.2259 44.2247 72.2259 42.1558Z" fill="#FE3B1F"/>
<path d="M79.1518 46.1381L81.8009 43.38C82.927 44.6659 84.2989 45.4798 86.0346 45.4798C87.7702 45.4798 88.4096 44.8847 88.4096 43.9118C88.4096 43.0979 87.923 42.6893 86.7952 42.5337L85.0596 42.3148C81.4355 41.8446 79.6683 40.2133 79.6683 37.2347C79.6683 34.0698 82.075 31.8726 85.8818 31.8726C89.2318 31.8726 90.7847 32.813 92.3991 34.4442L89.8098 37.1732C88.8049 36.1387 87.4646 35.4804 86.1242 35.4804C84.6012 35.4804 83.9916 36.0447 83.9916 36.8603C83.9916 37.7374 84.357 38.2077 85.6658 38.3957L87.4629 38.6471C90.9342 39.1156 92.7313 40.7468 92.7313 43.6006C92.7313 46.7673 89.9908 49.0876 85.8784 49.0876C82.8024 49.0876 80.7927 48.0207 79.1484 46.1398L79.1518 46.1381Z" fill="#FE3B1F"/>
<path d="M63.2939 22.044V5.09229H67.9362V8.77365H68.094C68.177 8.30002 68.3232 7.84177 68.5324 7.40062C68.7401 6.95947 69.0191 6.5662 69.3629 6.22251C69.7084 5.87883 70.1203 5.60354 70.6019 5.40006C71.0836 5.19488 71.6466 5.094 72.2961 5.094H73.1116V9.54994H71.9506C70.5903 9.54994 69.5821 9.7329 68.9244 10.0988C68.265 10.4647 67.9362 11.1435 67.9362 12.1336V22.0474H63.2939V22.044Z" fill="#2E3C8A"/>
<path d="M82.5095 22.4326C81.2971 22.4326 80.2142 22.2274 79.2625 21.8188C78.3108 21.4101 77.5069 20.8168 76.8475 20.0422C76.1881 19.2676 75.6816 18.3306 75.3261 17.2329C74.9707 16.1351 74.793 14.9074 74.793 13.5515C74.793 12.1956 74.9707 10.9679 75.3261 9.87013C75.6816 8.77239 76.1881 7.84222 76.8475 7.0779C77.5069 6.31359 78.3108 5.7271 79.2625 5.31844C80.2142 4.90978 81.2954 4.70459 82.5095 4.70459C83.7237 4.70459 84.8032 4.90978 85.7566 5.31844C86.7083 5.7271 87.5122 6.3153 88.1716 7.0779C88.8309 7.84222 89.3375 8.7741 89.693 9.87013C90.0484 10.9679 90.2261 12.1956 90.2261 13.5515C90.2261 14.9074 90.0484 16.1351 89.693 17.2329C89.3375 18.3306 88.8309 19.2676 88.1716 20.0422C87.5122 20.8168 86.7083 21.4101 85.7566 21.8188C84.8049 22.2274 83.722 22.4326 82.5095 22.4326ZM82.5095 18.6538C83.4297 18.6538 84.1405 18.3631 84.6421 17.7817C85.1437 17.2004 85.3945 16.3728 85.3945 15.2956V11.8399C85.3945 10.7644 85.1437 9.93511 84.6421 9.35375C84.1405 8.77239 83.4297 8.48171 82.5095 8.48171C81.5894 8.48171 80.8785 8.77239 80.3769 9.35375C79.8753 9.93511 79.6245 10.7644 79.6245 11.8399V15.2956C79.6245 16.3711 79.8753 17.2004 80.3769 17.7817C80.8785 18.3631 81.5894 18.6538 82.5095 18.6538Z" fill="#2E3C8A"/>
<path d="M93.2038 22.0442V5.09249H97.846V7.96679H98.0337C98.326 7.06227 98.8276 6.29282 99.5402 5.65846C100.251 5.02409 101.223 4.70605 102.457 4.70605C103.586 4.70605 104.548 4.99673 105.342 5.57809C106.136 6.15945 106.71 7.01097 107.067 8.12923H107.162C107.308 7.6556 107.532 7.20932 107.836 6.78869C108.139 6.36806 108.511 6.00898 108.949 5.70633C109.388 5.40539 109.879 5.16259 110.424 4.97964C110.967 4.79668 111.553 4.70605 112.181 4.70605C113.771 4.70605 114.988 5.28741 115.835 6.45013C116.682 7.61285 117.106 9.26972 117.106 11.4225V22.0459H112.464V11.8106C112.464 9.65786 111.711 8.58235 110.205 8.58235C109.514 8.58235 108.888 8.78754 108.323 9.1962C107.758 9.60486 107.476 10.229 107.476 11.0685V22.0476H102.834V11.8123C102.834 9.65957 102.081 8.58406 100.575 8.58406C100.239 8.58406 99.9105 8.63194 99.5867 8.7294C99.2628 8.82686 98.9705 8.98246 98.708 9.19791C98.4456 9.41335 98.238 9.67667 98.0802 9.98958C97.9224 10.3025 97.8444 10.6633 97.8444 11.0719V22.0511H93.2021L93.2038 22.0442Z" fill="#2E3C8A"/>
<path d="M120.93 5.09224H125.573V7.93406H125.73C125.96 6.98679 126.488 6.21221 127.313 5.60863C128.139 5.00675 129.085 4.7041 130.152 4.7041C132.243 4.7041 133.821 5.45816 134.889 6.96456C135.955 8.47097 136.488 10.6682 136.488 13.5527C136.488 16.4373 135.955 18.6379 134.889 20.1563C133.822 21.6747 132.243 22.4321 130.152 22.4321C129.607 22.4321 129.095 22.3518 128.615 22.1893C128.134 22.0286 127.7 21.8012 127.313 21.5105C126.926 21.2198 126.597 20.8761 126.325 20.4777C126.053 20.0793 125.855 19.6553 125.729 19.2022H125.571V28.5022H120.929V5.09224H120.93ZM128.615 18.5558C129.494 18.5558 130.22 18.2378 130.794 17.6034C131.369 16.9691 131.656 16.1124 131.656 15.0369V12.0976C131.656 11.0221 131.369 10.1655 130.794 9.53109C130.218 8.89673 129.492 8.57869 128.615 8.57869C127.738 8.57869 127.011 8.79926 126.436 9.24041C125.86 9.68156 125.574 10.2903 125.574 11.0649V16.0697C125.574 16.8442 125.862 17.453 126.436 17.8941C127.011 18.3353 127.738 18.5558 128.615 18.5558Z" fill="#2E3C8A"/>
<path d="M145.043 0.0859375H140.533V6.63477L145.043 5.37117V0.0859375Z" fill="#2E3C8A"/>
<path d="M148 10.5216V5.6792L137.867 8.52102V10.5216H140.533V17.2551C140.533 20.391 142.177 22.053 145.283 22.053H148V18.4469H145.041V10.5216H148Z" fill="#2E3C8A"/>
<path d="M43.9326 26.7466H53.9828C57.9424 26.7466 60.4387 29.5987 60.4387 33.7383C60.4387 37.8779 57.9407 40.73 53.9828 40.73H48.5616V48.71H43.9326V26.7466ZM53.4347 36.5904C54.8049 36.5904 55.6586 35.838 55.6586 34.4274V33.0475C55.6586 31.6368 54.8049 30.8828 53.4347 30.8828H48.5616V36.5886H53.4347V36.5904Z" fill="#FE3B1F"/>
<path d="M43.9326 0.0913086H53.9828C57.9424 0.0913086 60.4387 2.94339 60.4387 7.083C60.4387 11.2226 57.9407 14.0747 53.9828 14.0747H48.5616V22.0547H43.9326V0.0913086ZM53.4347 9.93508C54.8049 9.93508 55.6586 9.18274 55.6586 7.77208V6.39221C55.6586 4.98156 54.8049 4.22751 53.4347 4.22751H48.5616V9.93337H53.4347V9.93508Z" fill="#2E3C8A"/>
</g>
<defs>
<clipPath id="clip0_509_2406">
<rect width="148" height="49" fill="white" transform="translate(0 0.0859375)"/>
</clipPath>
</defs>
</svg>
