<svg width="33" height="32" viewBox="0 0 33 32" fill="none" xmlns="http://www.w3.org/2000/svg">
<path d="M25.6033 15.8334L19.3595 21.921C18.7367 22.5282 17.8924 22.8691 17.0125 22.8691H10.5001C8.31857 22.8691 6.55078 21.1455 6.55078 19.0186V7.27782C6.55078 5.11876 8.34527 3.36914 10.5597 3.36914H22.5285C24.7501 3.36914 26.5508 5.12483 26.5508 7.29083V13.604C26.5508 14.4402 26.21 15.2426 25.6033 15.8334ZM10.0881 8.51999V17.7122C10.0881 18.8017 10.9938 19.6848 12.1113 19.6848H15.4636C16.4769 19.6848 17.2981 18.8841 17.2981 17.8961V14.5114H20.9253C22.0739 14.5114 23.0054 13.6032 23.0054 12.4833V8.60326C23.0054 7.47039 22.0641 6.55264 20.9022 6.55264H12.1059C10.9912 6.55264 10.0881 7.43309 10.0881 8.51999Z" fill="#FE3B1F"/>
<path d="M24.7879 28.3691H8.31454C7.34091 28.3691 6.55078 27.5861 6.55078 26.6191C6.55078 25.6531 7.34002 24.8691 8.31454 24.8691H24.787C25.7607 24.8691 26.5508 25.6522 26.5508 26.6191C26.5508 27.5852 25.7615 28.3691 24.787 28.3691H24.7879Z" fill="#2E3C8A"/>
</svg>
