<svg width="32" height="32" viewBox="0 0 32 32" fill="none" xmlns="http://www.w3.org/2000/svg">
<path d="M25.8 7H6.2C6.09 7 6 7.09205 6 7.20455V8.84091C6 8.95341 6.09 9.04545 6.2 9.04545H25.8C25.91 9.04545 26 8.95341 26 8.84091V7.20455C26 7.09205 25.91 7 25.8 7ZM25.8 22.9545H6.2C6.09 22.9545 6 23.0466 6 23.1591V24.7955C6 24.908 6.09 25 6.2 25H25.8C25.91 25 26 24.908 26 24.7955V23.1591C26 23.0466 25.91 22.9545 25.8 22.9545ZM25.8 14.9773H6.2C6.09 14.9773 6 15.0693 6 15.1818V16.8182C6 16.9307 6.09 17.0227 6.2 17.0227H25.8C25.91 17.0227 26 16.9307 26 16.8182V15.1818C26 15.0693 25.91 14.9773 25.8 14.9773Z" fill="#2E3C8A"/>
</svg>
