<svg width="49" height="48" viewBox="0 0 49 48" fill="none" xmlns="http://www.w3.org/2000/svg">
<rect x="0.139648" width="48" height="48" rx="24" fill="#E8EAF7"/>
<path d="M24.1398 10.666C23.7683 10.666 23.409 10.7986 23.1265 11.0399C20.8065 13.0666 17.4731 14.6666 14.8065 14.6666C14.4529 14.6666 14.1137 14.8071 13.8637 15.0571C13.6136 15.3072 13.4731 15.6463 13.4731 15.9999V25.3333C13.4731 31.9999 18.1398 35.3333 23.6998 37.2533C23.9872 37.3603 24.3027 37.365 24.5931 37.2666C30.1398 35.3333 34.8065 31.9999 34.8065 25.3333V15.9999C34.8065 15.6463 34.666 15.3072 34.416 15.0571C34.1659 14.8071 33.8268 14.6666 33.4731 14.6666C30.8065 14.6666 27.4865 13.0799 25.1531 11.0399C24.8707 10.7986 24.5113 10.666 24.1398 10.666ZM24.1398 10.666V37.3333" stroke="#3D7CC9" stroke-width="3" stroke-linecap="round" stroke-linejoin="round"/>
</svg>
