<svg width="49" height="48" viewBox="0 0 49 48" fill="none" xmlns="http://www.w3.org/2000/svg">
<rect x="0.139648" width="48" height="48" rx="24" fill="#E8EAF7"/>
<path d="M10.8062 24.0001H14.8062M14.8062 24.0001C14.8062 29.1547 18.9848 33.3334 24.1395 33.3334M14.8062 24.0001C14.8062 18.8454 18.9848 14.6667 24.1395 14.6667M33.4728 24.0001H37.4728M33.4728 24.0001C33.4728 29.1547 29.2941 33.3334 24.1395 33.3334M33.4728 24.0001C33.4728 18.8454 29.2941 14.6667 24.1395 14.6667M24.1395 10.6667V14.6667M24.1395 33.3334V37.3334M28.1395 24.0001C28.1395 26.2092 26.3486 28.0001 24.1395 28.0001C21.9303 28.0001 20.1395 26.2092 20.1395 24.0001C20.1395 21.7909 21.9303 20.0001 24.1395 20.0001C26.3486 20.0001 28.1395 21.7909 28.1395 24.0001Z" stroke="#3D7CC9" stroke-width="3" stroke-linecap="round" stroke-linejoin="round"/>
</svg>
