<svg width="49" height="48" viewBox="0 0 49 48" fill="none" xmlns="http://www.w3.org/2000/svg">
<rect x="0.139648" width="48" height="48" rx="24" fill="#E8EAF7"/>
<path d="M16.6411 33.2133C17.2101 31.6829 18.2337 30.3632 19.5745 29.4314C20.9153 28.4997 22.5091 28.0005 24.1418 28.001C25.7746 28.0014 27.3681 28.5014 28.7084 29.4339C30.0487 30.3663 31.0716 31.6866 31.6398 33.2173M34.8065 25.3333C34.8065 31.9999 30.1398 35.3333 24.5931 37.2666C24.3027 37.365 23.9872 37.3603 23.6998 37.2533C18.1398 35.3333 13.4731 31.9999 13.4731 25.3333V15.9999C13.4731 15.6463 13.6136 15.3072 13.8637 15.0571C14.1137 14.8071 14.4529 14.6666 14.8065 14.6666C17.4731 14.6666 20.8065 13.0666 23.1265 11.0399C23.409 10.7986 23.7683 10.666 24.1398 10.666C24.5113 10.666 24.8707 10.7986 25.1531 11.0399C27.4865 13.0799 30.8065 14.6666 33.4731 14.6666C33.8268 14.6666 34.1659 14.8071 34.416 15.0571C34.666 15.3072 34.8065 15.6463 34.8065 15.9999V25.3333ZM29.4731 22.6667C29.4731 25.6122 27.0853 28 24.1398 28C21.1943 28 18.8065 25.6122 18.8065 22.6667C18.8065 19.7211 21.1943 17.3333 24.1398 17.3333C27.0853 17.3333 29.4731 19.7211 29.4731 22.6667Z" stroke="#3D7CC9" stroke-width="3" stroke-linecap="round" stroke-linejoin="round"/>
</svg>
