<svg width="49" height="48" viewBox="0 0 49 48" fill="none" xmlns="http://www.w3.org/2000/svg">
<rect x="0.139648" width="48" height="48" rx="24" fill="#E8EAF7"/>
<path d="M24.1395 14.6667C26.1395 12.6667 27.7928 12 30.1395 12C32.0844 12 33.9497 12.7726 35.3249 14.1479C36.7002 15.5232 37.4728 17.3884 37.4728 19.3333C37.4728 22.3867 35.4595 24.72 33.4728 26.6667L24.1395 36L14.8062 26.6667C12.8062 24.7333 10.8062 22.4 10.8062 19.3333C10.8062 17.3884 11.5788 15.5232 12.954 14.1479C14.3293 12.7726 16.1946 12 18.1395 12C20.4862 12 22.1395 12.6667 24.1395 14.6667ZM24.1395 14.6667L20.1928 18.6133C19.9219 18.8823 19.7069 19.2022 19.5602 19.5546C19.4134 19.907 19.3379 20.2849 19.3379 20.6667C19.3379 21.0484 19.4134 21.4264 19.5602 21.7788C19.7069 22.1312 19.9219 22.4511 20.1928 22.72C21.2861 23.8133 23.0328 23.8533 24.1928 22.8133L26.9528 20.28C27.6446 19.6523 28.5453 19.3045 29.4795 19.3045C30.4136 19.3045 31.3143 19.6523 32.0061 20.28L35.9528 23.8267M32.1395 28L29.4728 25.3333M28.1395 32L25.4728 29.3333" stroke="#3D7CC9" stroke-width="3" stroke-linecap="round" stroke-linejoin="round"/>
</svg>
