<svg width="48" height="48" viewBox="0 0 48 48" fill="none" xmlns="http://www.w3.org/2000/svg">
<rect width="48" height="48" rx="24" fill="#FFD7D1"/>
<path d="M34.6668 21.3334C34.6668 27.9907 27.2815 34.9241 24.8015 37.0654C24.5705 37.2391 24.2892 37.3331 24.0002 37.3331C23.7111 37.3331 23.4299 37.2391 23.1988 37.0654C20.7188 34.9241 13.3335 27.9907 13.3335 21.3334C13.3335 18.5044 14.4573 15.7913 16.4577 13.7909C18.4581 11.7906 21.1712 10.6667 24.0002 10.6667C26.8291 10.6667 29.5422 11.7906 31.5426 13.7909C33.543 15.7913 34.6668 18.5044 34.6668 21.3334Z" stroke="#FF4929" stroke-width="3" stroke-linecap="round" stroke-linejoin="round"/>
<path d="M24.0002 25.3334C26.2093 25.3334 28.0002 23.5426 28.0002 21.3334C28.0002 19.1243 26.2093 17.3334 24.0002 17.3334C21.791 17.3334 20.0002 19.1243 20.0002 21.3334C20.0002 23.5426 21.791 25.3334 24.0002 25.3334Z" stroke="#FF4929" stroke-width="3" stroke-linecap="round" stroke-linejoin="round"/>
</svg>
