<svg width="48" height="48" viewBox="0 0 48 48" fill="none" xmlns="http://www.w3.org/2000/svg">
<rect width="48" height="48" rx="24" fill="#FFD7D1"/>
<path d="M26.6665 31.9999V15.9999C26.6665 15.2927 26.3856 14.6144 25.8855 14.1143C25.3854 13.6142 24.7071 13.3333 23.9998 13.3333H13.3332C12.6259 13.3333 11.9476 13.6142 11.4476 14.1143C10.9475 14.6144 10.6665 15.2927 10.6665 15.9999V30.6666C10.6665 31.0202 10.807 31.3593 11.057 31.6094C11.3071 31.8594 11.6462 31.9999 11.9998 31.9999H14.6665M14.6665 31.9999C14.6665 33.4727 15.8604 34.6666 17.3332 34.6666C18.8059 34.6666 19.9998 33.4727 19.9998 31.9999M14.6665 31.9999C14.6665 30.5272 15.8604 29.3333 17.3332 29.3333C18.8059 29.3333 19.9998 30.5272 19.9998 31.9999M27.9998 31.9999H19.9998M27.9998 31.9999C27.9998 33.4727 29.1937 34.6666 30.6665 34.6666C32.1393 34.6666 33.3332 33.4727 33.3332 31.9999M27.9998 31.9999C27.9998 30.5272 29.1937 29.3333 30.6665 29.3333C32.1393 29.3333 33.3332 30.5272 33.3332 31.9999M33.3332 31.9999H35.9998C36.3535 31.9999 36.6926 31.8594 36.9426 31.6094C37.1927 31.3593 37.3332 31.0202 37.3332 30.6666V25.7999C37.3326 25.4973 37.2292 25.2039 37.0398 24.9679L32.3998 19.1679C32.2751 19.0118 32.1169 18.8856 31.9369 18.7988C31.7569 18.7121 31.5597 18.6669 31.3598 18.6666H26.6665" stroke="#FF4929" stroke-width="3" stroke-linecap="round" stroke-linejoin="round"/>
</svg>
