<svg width="48" height="48" viewBox="0 0 48 48" fill="none" xmlns="http://www.w3.org/2000/svg">
<rect width="48" height="48" rx="24" fill="#FFD7D1"/>
<path d="M29.3332 21.3334H31.9998M29.3332 26.6667H31.9998M16.2264 28.0002C16.5013 27.2188 17.0119 26.5421 17.6878 26.0634C18.3636 25.5847 19.1715 25.3276 19.9997 25.3276C20.828 25.3276 21.6358 25.5847 22.3117 26.0634C22.9876 26.5421 23.4982 27.2188 23.7731 28.0002M22.6665 22.6667C22.6665 24.1395 21.4726 25.3334 19.9998 25.3334C18.5271 25.3334 17.3332 24.1395 17.3332 22.6667C17.3332 21.194 18.5271 20.0001 19.9998 20.0001C21.4726 20.0001 22.6665 21.194 22.6665 22.6667ZM13.3332 14.6667H34.6665C36.1393 14.6667 37.3332 15.8607 37.3332 17.3334V30.6667C37.3332 32.1395 36.1393 33.3334 34.6665 33.3334H13.3332C11.8604 33.3334 10.6665 32.1395 10.6665 30.6667V17.3334C10.6665 15.8607 11.8604 14.6667 13.3332 14.6667Z" stroke="#FF4929" stroke-width="3" stroke-linecap="round" stroke-linejoin="round"/>
</svg>
