<svg width="48" height="48" viewBox="0 0 48 48" fill="none" xmlns="http://www.w3.org/2000/svg">
<rect width="48" height="48" rx="24" fill="#FFD7D1"/>
<path d="M21.5999 16.4001L16.3999 21.6001M17.3332 24.0001C17.3332 25.841 15.8408 27.3334 13.9998 27.3334C12.1589 27.3334 10.6665 25.841 10.6665 24.0001C10.6665 22.1591 12.1589 20.6667 13.9998 20.6667C15.8408 20.6667 17.3332 22.1591 17.3332 24.0001ZM17.3332 24.0001H30.6665M30.6665 24.0001C30.6665 25.841 32.1589 27.3334 33.9998 27.3334C35.8408 27.3334 37.3332 25.841 37.3332 24.0001C37.3332 22.1591 35.8408 20.6667 33.9998 20.6667C32.1589 20.6667 30.6665 22.1591 30.6665 24.0001ZM26.3999 31.6001L31.5999 26.4001M27.3332 14.0001C27.3332 15.841 25.8408 17.3334 23.9998 17.3334C22.1589 17.3334 20.6665 15.841 20.6665 14.0001C20.6665 12.1591 22.1589 10.6667 23.9998 10.6667C25.8408 10.6667 27.3332 12.1591 27.3332 14.0001ZM27.3332 34.0001C27.3332 35.841 25.8408 37.3334 23.9998 37.3334C22.1589 37.3334 20.6665 35.841 20.6665 34.0001C20.6665 32.1591 22.1589 30.6667 23.9998 30.6667C25.8408 30.6667 27.3332 32.1591 27.3332 34.0001Z" stroke="#FF4929" stroke-width="3" stroke-linecap="round" stroke-linejoin="round"/>
</svg>
