<svg width="24" height="24" viewBox="0 0 24 24" fill="none" xmlns="http://www.w3.org/2000/svg">
<path d="M14.2897 19.1177C13.6837 19.6668 12.8877 20 12.0159 20C11.1441 20 10.3481 19.6668 9.74213 19.1177M17.1702 13.1008V10.2941C17.1702 7.36271 14.8712 5 12.0159 5C9.1607 5 6.83051 7.26198 6.83051 10.2941V13.0817C6.83051 13.5081 6.76579 13.9316 6.63884 14.3361L6.00419 16.358C5.98682 16.4134 6.02562 16.4705 6.08057 16.4705H17.9143C17.9724 16.4705 18.0136 16.4124 17.9958 16.3556L17.3568 14.32C17.2332 13.926 17.1702 13.5147 17.1702 13.1008Z" stroke="#2D2F2F" stroke-width="2" stroke-linecap="round"/>
</svg>
